# xmcd
#
# Track frame offsets:
#	150
#	12375
#	24997
#	37099
#	49835
#	64645
#	76686
#	89040
#	105677
#	118776
#	131204
#	148781
#	162428
#	179673
#	196031
#
# Disc length: 2787 seconds
# Revision: 0
# Processed by: cddbd v1.5.2PL0 Copyright (c) Steve Scherf et al.
# Submitted via: dBpowerAMP V12.0
#
DISCID=d30ae10f
DTITLE=Little Johnny Taylor - Everybody Knows
DYEAR=1970
DGENRE=Blues
TTITLE0=Baby, Get Hip To Yourself
TTITLE1=How Are You Fixed For Love
TTITLE2=How Can I Broke A Man Survive
TTITLE3=Keep On Keeping On
TTITLE4=Everybody Knows (Part 1)
TTITLE5=Everybody Knows (Part 2)
TTITLE6=There Is Something On Your Mind
TTITLE7=You've Got The Love I Need
TTITLE8=It's My Fault Darling
TTITLE9=Make Love To Me Baby
TTITLE10=Sweet Soul Woman
TTITLE11=When Are You Coming Home [Bonus]
TTITLE12=I Can't See Myself As A One [Bonus]
TTITLE13=Part Time Lover [Bonus]
TTITLE14=I Should Have Known [Bonus]
EXTD=
EXTT0=
EXTT1=
EXTT2=
EXTT3=
EXTT4=
EXTT5=
EXTT6=
EXTT7=
EXTT8=
EXTT9=
EXTT10=
EXTT11=
EXTT12=
EXTT13=
EXTT14=
PLAYORDER=
